<mxfile host="app.diagrams.net" modified="2024-01-31T14:14:11.709Z" agent="Mozilla/5.0 (Windows NT 10.0; Win64; x64) AppleWebKit/537.36 (KHTML, like Gecko) Chrome/121.0.0.0 Safari/537.36" version="23.0.2" etag="C_ekPSYFGtc1_JFfPSNx" type="github">
  <diagram name="第 1 页" id="neKxh6z_9__IzbFEOgkC">
    <mxGraphModel>
      <root>
        <mxCell id="0" />
        <mxCell id="1" parent="0" />
      </root>
    </mxGraphModel>
  </diagram>
</mxfile>
